<?xml version="1.0" encoding="UTF-8" standalone="no"?>
<!-- Created with Inkscape (http://www.inkscape.org/) -->

<svg width="18.520834mm" height="6.8791666mm" viewBox="0 0 18.520834 6.8791667" version="1.1" id="svg5" xmlns="http://www.w3.org/2000/svg" xmlns:svg="http://www.w3.org/2000/svg">
  <defs id="defs2" />
  <g id="layer1" transform="matrix(0.99398174,0,0,1.002485,-113.87048,-58.097583)">
    <path id="path3416" style="font-size:7.40833px;line-height:1.25;font-family:'Arial Black';-inkscape-font-specification:'Arial Black, ';letter-spacing:0px;word-spacing:0px;fill:#ffffff;stroke-width:0.999999" d="m 453.35352,219.03711 -1.76368,10.77344 4.74414,0.68359 c 0.44662,-0.50131 0.85678,-0.84767 1.23047,-1.03906 0.50132,-0.26432 1.02085,-0.39649 1.5586,-0.39649 0.84767,0 1.52669,0.278 2.03711,0.83399 0.51041,0.55599 0.76562,1.43099 0.76562,2.625 0,1.16666 -0.25521,2.04622 -0.76562,2.63867 -0.50132,0.58333 -1.13934,0.875 -1.91407,0.875 -0.69271,0 -1.28972,-0.23242 -1.79101,-0.69727 -0.50122,-0.47396 -0.82021,-1.16211 -0.95703,-2.06445 l -5.63282,0.61524 c 0.27344,0.9388 0.61524,1.72265 1.02539,2.35156 0.41018,0.6289 0.94339,1.19401 1.59961,1.69531 0.66538,0.49219 1.46744,0.86589 2.40625,1.12109 0.94791,0.2461 2.08268,0.36914 3.4043,0.36915 1.84114,0 3.34961,-0.31446 4.52539,-0.94336 1.18491,-0.62891 2.09637,-1.54037 2.73438,-2.73438 0.64713,-1.19401 0.9707,-2.43815 0.9707,-3.73242 0,-1.84115 -0.62434,-3.36784 -1.87305,-4.58008 -1.24868,-1.21224 -2.87564,-1.81836 -4.88086,-1.81836 -0.59245,0 -1.19401,0.0729 -1.80468,0.21875 -0.60155,0.14584 -1.21224,0.36459 -1.83204,0.65625 l 0.47852,-3.00781 h 8.95508 v -4.44336 z m 26.49609,0 v 3.82812 h 5.57812 v -3.82812 z m -36.98242,5.19531 c -0.98437,0 -1.88217,0.2142 -2.69336,0.64258 -0.60158,0.31901 -1.26237,0.92969 -1.98242,1.83203 v -2.14648 h -5.20899 v 20.04297 h 5.61914 v -6.93164 c 0.556,0.57421 1.18489,1.00716 1.88672,1.29882 0.71093,0.29167 1.4948,0.4375 2.35156,0.4375 1.76824,0 3.23113,-0.63346 4.38868,-1.90039 1.15754,-1.27604 1.73632,-3.12174 1.73632,-5.53711 0,-2.1875 -0.5332,-4.02409 -1.59961,-5.50976 -1.05728,-1.48568 -2.55663,-2.22852 -4.49804,-2.22852 z m 52.77343,0 c -1.64061,0 -2.94855,0.17318 -3.92382,0.51953 -0.97525,0.33724 -1.74088,0.85222 -2.29688,1.54493 -0.55599,0.6927 -0.83398,1.51758 -0.83398,2.4746 0,0.87501 0.25521,1.6543 0.76562,2.3379 0.51954,0.68359 1.153,1.17122 1.90039,1.46289 0.75651,0.28255 2.10091,0.59244 4.03321,0.92968 1.29426,0.22786 2.09177,0.41926 2.39257,0.57422 0.41925,0.21875 0.62891,0.52865 0.62891,0.92969 0,0.35547 -0.15952,0.65169 -0.47852,0.88867 -0.41015,0.31901 -0.98891,0.47852 -1.73632,0.47852 -0.68359,0 -1.23047,-0.14128 -1.64063,-0.42383 -0.41023,-0.28255 -0.72925,-0.75195 -0.95703,-1.4082 l -5.52344,0.51953 c 0.31902,1.39453 1.03908,2.47005 2.16016,3.22656 1.1302,0.75651 3.02148,1.13477 5.67383,1.13477 1.87759,-10e-6 3.35871,-0.23243 4.44336,-0.69727 1.09374,-0.47396 1.89128,-1.10742 2.39257,-1.90039 0.51042,-0.79297 0.76563,-1.60873 0.76563,-2.44727 0,-0.82942 -0.24156,-1.59049 -0.72461,-2.2832 -0.47398,-0.69271 -1.16213,-1.22591 -2.06445,-1.59961 -0.90235,-0.37369 -2.27865,-0.66536 -4.12891,-0.875 -1.22137,-0.14583 -2.01433,-0.30989 -2.3789,-0.49219 -0.3646,-0.18229 -0.54688,-0.45117 -0.54688,-0.80664 0,-0.319 0.14127,-0.58788 0.42383,-0.80664 0.29168,-0.22785 0.75197,-0.3418 1.38086,-0.34179 0.61979,-10e-6 1.14842,0.14583 1.58593,0.4375 0.3189,0.21874 0.54678,0.56054 0.6836,1.02539 l 5.27734,-0.51954 c -0.36457,-0.94791 -0.82486,-1.69987 -1.38086,-2.25585 -0.54687,-0.55599 -1.23502,-0.96615 -2.06445,-1.23047 -0.82031,-0.26433 -2.09635,-0.39649 -3.82813,-0.39649 z m -15.79101,0.32813 v 13.60351 c 0,0.96615 -0.12297,1.60873 -0.36914,1.92774 -0.24607,0.32812 -0.6061,0.49218 -1.08008,0.49218 -0.20964,0 -0.53776,-0.0456 -0.98437,-0.13671 l -0.83399,4.04687 c 1.59504,0.31901 2.93033,0.47852 4.00586,0.47852 1.30338,0 2.30598,-0.23243 3.00781,-0.69727 0.70181,-0.46484 1.18033,-1.07096 1.43555,-1.81836 0.26431,-0.74739 0.39648,-2.01888 0.39648,-3.81445 v -14.08203 z m -38.80078,3.75976 c 0.65625,0 1.21226,0.278 1.66797,0.83399 0.45573,0.54687 0.68359,1.4082 0.68359,2.58398 0,1.27604 -0.21876,2.18295 -0.65625,2.7207 -0.43749,0.52865 -0.9798,0.79297 -1.62695,0.79297 -0.73827,0 -1.34896,-0.27799 -1.83203,-0.83398 -0.48308,-0.55599 -0.72461,-1.4082 -0.72461,-2.55664 0,-1.2487 0.23698,-2.15104 0.71093,-2.70703 0.47396,-0.55599 1.06639,-0.83399 1.77735,-0.83399 z m 29.27148,5.18164 v 5.57813 h 5.94727 v -5.57813 z" transform="scale(0.26458333)" />
  </g>
</svg>
