<?xml version="1.0" standalone="no"?>
<!DOCTYPE svg PUBLIC "-//W3C//DTD SVG 20010904//EN"
 "http://www.w3.org/TR/2001/REC-SVG-20010904/DTD/svg10.dtd">
<svg version="1.0" xmlns="http://www.w3.org/2000/svg"
 width="700.000000pt" height="700.000000pt" viewBox="0 0 700.000000 700.000000"
 preserveAspectRatio="xMidYMid meet">
<metadata>
Created by potrace 1.14, written by Peter Selinger 2001-2017
</metadata>
<g transform="translate(0.000000,700.000000) scale(0.100000,-0.100000)"
fill="#000000" stroke="none">
<path d="M0 3500 l0 -3500 3500 0 3500 0 0 3500 0 3500 -3500 0 -3500 0 0
-3500z m2600 1586 c124 -25 205 -51 295 -94 303 -148 465 -444 465 -852 0
-532 -278 -884 -777 -984 -144 -29 -256 -36 -590 -36 l-333 0 0 -585 0 -585
-490 0 -490 0 0 1580 0 1581 918 -4 c815 -3 926 -6 1002 -21z m3570 -326 l0
-350 -705 0 c-388 0 -705 -3 -705 -6 0 -4 -16 -108 -36 -231 -20 -124 -34
-226 -32 -229 3 -2 53 14 113 37 151 57 257 79 415 85 337 14 611 -85 822
-297 168 -169 254 -357 277 -603 31 -329 -89 -684 -311 -921 -238 -255 -598
-371 -1086 -351 -342 13 -577 76 -772 207 -110 74 -249 219 -312 326 -48 80
-123 254 -134 309 l-6 30 442 48 c243 26 443 46 444 44 1 -1 8 -30 15 -63 32
-149 120 -269 240 -328 62 -30 72 -32 176 -32 98 0 116 3 167 27 114 53 195
157 234 298 15 51 18 101 18 230 0 154 -2 170 -27 244 -60 170 -160 257 -330
287 -113 19 -254 -11 -356 -75 -22 -14 -68 -52 -103 -85 l-64 -60 -367 53
c-202 29 -369 55 -371 57 -4 4 254 1611 269 1677 l5 22 1040 0 1040 0 0 -350z"/>
<path d="M1660 4116 l0 -356 163 0 c267 1 389 28 476 106 125 112 145 300 48
446 -77 116 -174 147 -484 155 l-203 6 0 -357z"/>
</g>
</svg>
