<?xml version="1.0" encoding="UTF-8" standalone="no"?>
<!-- Created with Inkscape (http://www.inkscape.org/) -->

<svg width="132.29207mm" height="31.127436mm" viewBox="0 0 132.29207 31.127436" version="1.1" id="svg18697" xmlns="http://www.w3.org/2000/svg" xmlns:svg="http://www.w3.org/2000/svg">
  <defs id="defs18694" />
  <g id="layer1" transform="matrix(1.9584517,0,0,1.9584517,-212.14455,-329.87285)">
    <path id="Letter_1" style="font-size:15.8939px;line-height:1.25;font-family:'Pixel Bit Advanced';-inkscape-font-specification:'Pixel Bit Advanced';letter-spacing:0px;word-spacing:0px;fill:#ff9c1e;stroke-width:2.1454" d="m 409.4082,636.60742 v 60.07031 h 45.05469 v -60.07031 z m 7.50977,7.50781 h 7.50976 v 15.01758 h 7.50782 V 651.625 h 7.50976 v -7.50977 h 7.50781 v 7.50977 h -7.50781 v 7.50781 h -7.50976 v 7.50977 h 7.50976 v 7.50781 h 7.50781 v 7.50977 h -7.50781 v -7.50977 h -7.50976 v -7.50781 h -7.50782 v 15.01758 h -7.50976 z" transform="scale(0.26458333)" />
    <path d="M 126.20346,178.36921 V 172.409 h 3.97347 v 5.96021 z m 5.96021,1.98674 v -9.93369 h -7.94695 v 9.93369 z m -9.93369,3.97348 v -15.8939 h 11.92043 v 15.8939 z" id="Letter_2" style="font-size:15.8939px;line-height:1.25;font-family:'Pixel Bit Advanced';-inkscape-font-specification:'Pixel Bit Advanced';letter-spacing:0px;word-spacing:0px;fill:#1e6bff;fill-opacity:1;stroke-width:0.567638" />
    <path id="Letter_3" style="font-size:15.8939px;line-height:1.25;font-family:'Pixel Bit Advanced';-inkscape-font-specification:'Pixel Bit Advanced';letter-spacing:0px;word-spacing:0px;fill:#ff1e7b;fill-opacity:1;stroke-width:2.1454" d="m 514.5332,636.60742 v 60.07031 h 45.05469 v -60.07031 z m 7.50977,7.50781 h 22.52734 v 7.50977 h 7.50781 v 22.52539 h -7.50781 v 7.50977 h -22.52734 z m 22.52734,30.03516 V 651.625 h -15.01758 v 22.52539 z" transform="scale(0.26458333)" />
    <path d="m 159.978,180.35595 v -9.93369 h -1.98674 v 7.94695 h -3.97348 v -7.94695 h -1.98674 v 9.93369 z m -9.93369,3.97348 v -15.8939 h 11.92043 v 15.8939 z" id="Letter_4" style="font-size:15.8939px;line-height:1.25;font-family:'Pixel Bit Advanced';-inkscape-font-specification:'Pixel Bit Advanced';letter-spacing:0px;word-spacing:0px;fill:#79ff1e;fill-opacity:1;stroke-width:0.567638" />
    <path d="m 173.88516,180.35595 v -9.93369 h -7.94695 v 1.98674 h 5.96021 v 5.96021 h -3.97347 v -1.98673 h -1.98674 v 3.97347 z m -9.93369,3.97348 v -15.8939 h 11.92043 v 15.8939 z" id="Letter_5" style="font-size:15.8939px;line-height:1.25;font-family:'Pixel Bit Advanced';-inkscape-font-specification:'Pixel Bit Advanced';letter-spacing:0px;word-spacing:0px;fill:#1effe9;fill-opacity:1;stroke-width:0.567638" />
  </g>
</svg>
